<?xml version="1.0" encoding="UTF-8" standalone="no"?>
<svg
   width="2081773.9"
   height="221251.45"
   viewBox="0 0 2081773.9 221251.45"
   version="1.1"
   xml:space="preserve"
   style="clip-rule:evenodd;fill-rule:evenodd;stroke-linecap:round;stroke-miterlimit:10"
   id="svg89"
   xmlns="http://www.w3.org/2000/svg"
   xmlns:svg="http://www.w3.org/2000/svg"
   xmlns:serif="http://www.serif.com/">
    <g
   transform="translate(-3359.361,-62.732917)"
   id="g78">
        <g
   transform="matrix(0.504103,0,0,0.504103,382.54068,-17.4885)"
   id="g3">
                <g
   transform="matrix(1.98372,0,0,1.98372,-142.609,208.212)"
   id="g2">
                    <path
   d="m 1252.04,184.631 c 2.49,0 4.5,2.016 4.5,4.5 0,2.484 -2.01,4.5 -4.5,4.5 -2.48,0 -4.5,-2.016 -4.5,-4.5 0,-2.484 2.02,-4.5 4.5,-4.5 z m 0,3 c -0.83,0 -1.5,0.672 -1.5,1.5 0,0.828 0.67,1.5 1.5,1.5 0.83,0 1.5,-0.672 1.5,-1.5 0,-0.828 -0.67,-1.5 -1.5,-1.5 z"
   style="fill:#01008c"
   id="path1" />
                    <path
   d="m 181.522,190.631 c -0.828,0 -1.5,-0.672 -1.5,-1.5 0,-0.828 0.672,-1.5 1.5,-1.5 H 1249.04 c 0.83,0 1.5,0.672 1.5,1.5 0,0.828 -0.67,1.5 -1.5,1.5 z"
   style="fill:#01008c"
   id="path2" />
                </g>
            </g><g
   transform="matrix(0.958605,0,0,0.958605,-65.57902,-282.8837)"
   id="g5">
                <g
   transform="matrix(1.04318,0,0,1.04318,392.476,386.348)"
   id="g4">
                    <circle
   cx="177.022"
   cy="188.89"
   r="3"
   style="fill:none;stroke:#01008c;stroke-width:3px"
   id="circle3" />
                    <path
   d="m 14.674,190.39 c -0.828,0 -1.5,-0.672 -1.5,-1.5 0,-0.828 0.672,-1.5 1.5,-1.5 h 1.532 c 0.828,0 1.5,0.672 1.5,1.5 0,0.828 -0.672,1.5 -1.5,1.5 z m 10.725,0 c -0.828,0 -1.5,-0.672 -1.5,-1.5 0,-0.828 0.672,-1.5 1.5,-1.5 h 3.065 c 0.828,0 1.5,0.672 1.5,1.5 0,0.828 -0.672,1.5 -1.5,1.5 z m 12.258,0 c -0.828,0 -1.5,-0.672 -1.5,-1.5 0,-0.828 0.672,-1.5 1.5,-1.5 h 3.064 c 0.828,0 1.5,0.672 1.5,1.5 0,0.828 -0.672,1.5 -1.5,1.5 z m 12.257,0 c -0.828,0 -1.5,-0.672 -1.5,-1.5 0,-0.828 0.672,-1.5 1.5,-1.5 h 3.065 c 0.828,0 1.5,0.672 1.5,1.5 0,0.828 -0.672,1.5 -1.5,1.5 z m 12.258,0 c -0.828,0 -1.5,-0.672 -1.5,-1.5 0,-0.828 0.672,-1.5 1.5,-1.5 h 3.064 c 0.828,0 1.5,0.672 1.5,1.5 0,0.828 -0.672,1.5 -1.5,1.5 z m 12.257,0 c -0.828,0 -1.5,-0.672 -1.5,-1.5 0,-0.828 0.672,-1.5 1.5,-1.5 h 3.065 c 0.828,0 1.5,0.672 1.5,1.5 0,0.828 -0.672,1.5 -1.5,1.5 z m 12.258,0 c -0.828,0 -1.5,-0.672 -1.5,-1.5 0,-0.828 0.672,-1.5 1.5,-1.5 h 3.064 c 0.828,0 1.5,0.672 1.5,1.5 0,0.828 -0.672,1.5 -1.5,1.5 z m 12.258,0 c -0.828,0 -1.5,-0.672 -1.5,-1.5 0,-0.828 0.672,-1.5 1.5,-1.5 h 3.064 c 0.828,0 1.5,0.672 1.5,1.5 0,0.828 -0.672,1.5 -1.5,1.5 z m 12.257,0 c -0.828,0 -1.5,-0.672 -1.5,-1.5 0,-0.828 0.672,-1.5 1.5,-1.5 h 3.064 c 0.828,0 1.5,0.672 1.5,1.5 0,0.828 -0.672,1.5 -1.5,1.5 z m 12.258,0 c -0.828,0 -1.5,-0.672 -1.5,-1.5 0,-0.828 0.672,-1.5 1.5,-1.5 h 3.064 c 0.828,0 1.5,0.672 1.5,1.5 0,0.828 -0.672,1.5 -1.5,1.5 z m 12.257,0 c -0.828,0 -1.5,-0.672 -1.5,-1.5 0,-0.828 0.672,-1.5 1.5,-1.5 h 3.065 c 0.827,0 1.5,0.672 1.5,1.5 0,0.828 -0.673,1.5 -1.5,1.5 z m 12.258,0 c -0.828,0 -1.5,-0.672 -1.5,-1.5 0,-0.828 0.672,-1.5 1.5,-1.5 h 3.064 c 0.828,0 1.5,0.672 1.5,1.5 0,0.828 -0.672,1.5 -1.5,1.5 z m 12.257,0 c -0.828,0 -1.5,-0.672 -1.5,-1.5 0,-0.828 0.672,-1.5 1.5,-1.5 h 3.065 c 0.827,0 1.5,0.672 1.5,1.5 0,0.828 -0.673,1.5 -1.5,1.5 z m 12.258,0 c -0.828,0 -1.5,-0.672 -1.5,-1.5 0,-0.828 0.672,-1.5 1.5,-1.5 h 1.532 c 0.828,0 1.5,0.672 1.5,1.5 0,0.828 -0.672,1.5 -1.5,1.5 z"
   style="fill:#01008c"
   id="path3" />
                </g>
            </g><g
   transform="translate(1238.3947,-145.0773)"
   id="g6">
                <path
   d="M 328.8,421.68 H 506.801"
   style="fill:none"
   id="path5" />
                <path
   d="m 328.8,423.43 c -0.965,0 -1.75,-0.784 -1.75,-1.75 0,-0.966 0.785,-1.75 1.75,-1.75 h 1.855 c 0.965,0 1.75,0.784 1.75,1.75 0,0.966 -0.785,1.75 -1.75,1.75 z m 12.98,0 c -0.966,0 -1.75,-0.784 -1.75,-1.75 0,-0.966 0.784,-1.75 1.75,-1.75 h 3.708 c 0.966,0 1.75,0.784 1.75,1.75 0,0.966 -0.784,1.75 -1.75,1.75 z m 14.833,0 c -0.966,0 -1.75,-0.784 -1.75,-1.75 0,-0.966 0.784,-1.75 1.75,-1.75 h 3.708 c 0.966,0 1.75,0.784 1.75,1.75 0,0.966 -0.784,1.75 -1.75,1.75 z m 14.833,0 c -0.965,0 -1.75,-0.784 -1.75,-1.75 0,-0.966 0.785,-1.75 1.75,-1.75 h 3.709 c 0.966,0 1.75,0.784 1.75,1.75 0,0.966 -0.784,1.75 -1.75,1.75 z m 14.834,0 c -0.966,0 -1.75,-0.784 -1.75,-1.75 0,-0.966 0.784,-1.75 1.75,-1.75 h 3.708 c 0.966,0 1.75,0.784 1.75,1.75 0,0.966 -0.784,1.75 -1.75,1.75 z m 14.833,0 c -0.966,0 -1.75,-0.784 -1.75,-1.75 0,-0.966 0.784,-1.75 1.75,-1.75 h 3.709 c 0.965,0 1.75,0.784 1.75,1.75 0,0.966 -0.785,1.75 -1.75,1.75 z m 14.834,0 c -0.966,0 -1.75,-0.784 -1.75,-1.75 0,-0.966 0.784,-1.75 1.75,-1.75 h 3.708 c 0.966,0 1.75,0.784 1.75,1.75 0,0.966 -0.784,1.75 -1.75,1.75 z m 14.833,0 c -0.966,0 -1.75,-0.784 -1.75,-1.75 0,-0.966 0.784,-1.75 1.75,-1.75 h 3.709 c 0.966,0 1.75,0.784 1.75,1.75 0,0.966 -0.784,1.75 -1.75,1.75 z m 14.833,0 c -0.965,0 -1.75,-0.784 -1.75,-1.75 0,-0.966 0.785,-1.75 1.75,-1.75 h 3.709 c 0.966,0 1.75,0.784 1.75,1.75 0,0.966 -0.784,1.75 -1.75,1.75 z m 14.834,0 c -0.966,0 -1.75,-0.784 -1.75,-1.75 0,-0.966 0.784,-1.75 1.75,-1.75 h 3.708 c 0.966,0 1.75,0.784 1.75,1.75 0,0.966 -0.784,1.75 -1.75,1.75 z m 14.834,0 c -0.966,0 -1.75,-0.784 -1.75,-1.75 0,-0.966 0.784,-1.75 1.75,-1.75 h 3.708 c 0.966,0 1.75,0.784 1.75,1.75 0,0.966 -0.784,1.75 -1.75,1.75 z m 14.833,0 c -0.966,0 -1.75,-0.784 -1.75,-1.75 0,-0.966 0.784,-1.75 1.75,-1.75 h 3.708 c 0.966,0 1.75,0.784 1.75,1.75 0,0.966 -0.784,1.75 -1.75,1.75 z m 14.833,0 c -0.966,0 -1.75,-0.784 -1.75,-1.75 0,-0.966 0.784,-1.75 1.75,-1.75 h 1.854 c 0.966,0 1.75,0.784 1.75,1.75 0,0.966 -0.784,1.75 -1.75,1.75 z"
   style="fill:#01008c"
   id="path6" />
            </g>
        <g
   transform="matrix(0.958605,0,0,0.958605,-65.579,-95.5596)"
   id="g8">
                <g
   transform="matrix(1.04318,0,0,1.04318,392.476,190.935)"
   id="g7">
                    <circle
   cx="177.022"
   cy="376.21399"
   r="3"
   style="fill:none;stroke:#01008c;stroke-width:3px"
   id="circle6" />
                    <path
   d="m 14.674,377.714 c -0.828,0 -1.5,-0.672 -1.5,-1.5 0,-0.828 0.672,-1.5 1.5,-1.5 h 1.532 c 0.828,0 1.5,0.672 1.5,1.5 0,0.828 -0.672,1.5 -1.5,1.5 z m 10.725,0 c -0.828,0 -1.5,-0.672 -1.5,-1.5 0,-0.828 0.672,-1.5 1.5,-1.5 h 3.065 c 0.828,0 1.5,0.672 1.5,1.5 0,0.828 -0.672,1.5 -1.5,1.5 z m 12.258,0 c -0.828,0 -1.5,-0.672 -1.5,-1.5 0,-0.828 0.672,-1.5 1.5,-1.5 h 3.064 c 0.828,0 1.5,0.672 1.5,1.5 0,0.828 -0.672,1.5 -1.5,1.5 z m 12.257,0 c -0.828,0 -1.5,-0.672 -1.5,-1.5 0,-0.828 0.672,-1.5 1.5,-1.5 h 3.065 c 0.828,0 1.5,0.672 1.5,1.5 0,0.828 -0.672,1.5 -1.5,1.5 z m 12.258,0 c -0.828,0 -1.5,-0.672 -1.5,-1.5 0,-0.828 0.672,-1.5 1.5,-1.5 h 3.064 c 0.828,0 1.5,0.672 1.5,1.5 0,0.828 -0.672,1.5 -1.5,1.5 z m 12.257,0 c -0.828,0 -1.5,-0.672 -1.5,-1.5 0,-0.828 0.672,-1.5 1.5,-1.5 h 3.065 c 0.828,0 1.5,0.672 1.5,1.5 0,0.828 -0.672,1.5 -1.5,1.5 z m 12.258,0 c -0.828,0 -1.5,-0.672 -1.5,-1.5 0,-0.828 0.672,-1.5 1.5,-1.5 h 3.064 c 0.828,0 1.5,0.672 1.5,1.5 0,0.828 -0.672,1.5 -1.5,1.5 z m 12.258,0 c -0.828,0 -1.5,-0.672 -1.5,-1.5 0,-0.828 0.672,-1.5 1.5,-1.5 h 3.064 c 0.828,0 1.5,0.672 1.5,1.5 0,0.828 -0.672,1.5 -1.5,1.5 z m 12.257,0 c -0.828,0 -1.5,-0.672 -1.5,-1.5 0,-0.828 0.672,-1.5 1.5,-1.5 h 3.064 c 0.828,0 1.5,0.672 1.5,1.5 0,0.828 -0.672,1.5 -1.5,1.5 z m 12.258,0 c -0.828,0 -1.5,-0.672 -1.5,-1.5 0,-0.828 0.672,-1.5 1.5,-1.5 h 3.064 c 0.828,0 1.5,0.672 1.5,1.5 0,0.828 -0.672,1.5 -1.5,1.5 z m 12.257,0 c -0.828,0 -1.5,-0.672 -1.5,-1.5 0,-0.828 0.672,-1.5 1.5,-1.5 h 3.065 c 0.827,0 1.5,0.672 1.5,1.5 0,0.828 -0.673,1.5 -1.5,1.5 z m 12.258,0 c -0.828,0 -1.5,-0.672 -1.5,-1.5 0,-0.828 0.672,-1.5 1.5,-1.5 h 3.064 c 0.828,0 1.5,0.672 1.5,1.5 0,0.828 -0.672,1.5 -1.5,1.5 z m 12.257,0 c -0.828,0 -1.5,-0.672 -1.5,-1.5 0,-0.828 0.672,-1.5 1.5,-1.5 h 3.065 c 0.827,0 1.5,0.672 1.5,1.5 0,0.828 -0.673,1.5 -1.5,1.5 z m 12.258,0 c -0.828,0 -1.5,-0.672 -1.5,-1.5 0,-0.828 0.672,-1.5 1.5,-1.5 h 1.532 c 0.828,0 1.5,0.672 1.5,1.5 0,0.828 -0.672,1.5 -1.5,1.5 z"
   style="fill:#01008c"
   id="path7" />
                </g>
            </g><g
   transform="translate(72.3928,41.9286)"
   id="g11">
                <path
   d="m 419.165,421.699 c -3.62,0.438 144.756,-0.461 144.756,-0.461"
   style="fill:#ffffff"
   id="path8" />
                <g
   transform="translate(238.258,45.5432)"
   id="g10">
                    <path
   d="m 320.382,370.476 c 2.897,-0.018 5.263,2.321 5.28,5.218 0.018,2.898 -2.321,5.264 -5.218,5.281 -2.898,0.018 -5.264,-2.321 -5.281,-5.218 -0.017,-2.898 2.321,-5.264 5.219,-5.281 z m 0.02,3.5 c -0.966,0.005 -1.745,0.794 -1.739,1.76 0.005,0.966 0.794,1.745 1.76,1.739 0.966,-0.005 1.745,-0.794 1.739,-1.76 -0.005,-0.966 -0.794,-1.745 -1.76,-1.739 z"
   style="fill:#01008c"
   id="path9" />
                    <path
   d="m 181.307,374.451 c 0.338,0.011 1.029,0.03 1.82,0.039 15.418,0.174 105.179,-0.327 133.775,-0.494 0.966,-0.005 1.755,0.774 1.761,1.74 0.005,0.966 -0.774,1.755 -1.74,1.76 -28.609,0.167 -118.411,0.667 -133.835,0.494 -1.634,-0.019 -2.566,-0.09 -2.686,-0.122 l -0.642,-0.321 -0.377,-0.409 -0.224,-0.486 -0.06,-0.636 0.139,-0.545 0.338,-0.509 0.617,-0.419 0.504,-0.125 c 0.21,-0.025 0.415,-0.012 0.61,0.033 z m 0.082,3.387 c -0.087,0.025 -0.178,0.044 -0.272,0.055 0.102,-0.012 0.192,-0.032 0.272,-0.055 z"
   style="fill:#01008c"
   id="path10" />
                </g>
            </g><g
   transform="translate(218.545,41.9286)"
   id="g14">
                <path
   d="M 417.768,421.68 H 887.003"
   style="fill:none"
   id="path11" />
                <g
   transform="translate(92.106,45.5432)"
   id="g13">
                    <path
   d="m 789.647,370.887 c 2.898,0 5.25,2.352 5.25,5.25 0,2.898 -2.352,5.25 -5.25,5.25 -2.897,0 -5.25,-2.352 -5.25,-5.25 0,-2.898 2.353,-5.25 5.25,-5.25 z m 0,3.5 c -0.966,0 -1.75,0.784 -1.75,1.75 0,0.966 0.784,1.75 1.75,1.75 0.966,0 1.75,-0.784 1.75,-1.75 0,-0.966 -0.784,-1.75 -1.75,-1.75 z"
   style="fill:#01008c"
   id="path12" />
                    <path
   d="m 325.662,377.887 c -0.965,0 -1.75,-0.784 -1.75,-1.75 0,-0.966 0.785,-1.75 1.75,-1.75 h 460.485 c 0.966,0 1.75,0.784 1.75,1.75 0,0.966 -0.784,1.75 -1.75,1.75 z"
   style="fill:#01008c"
   id="path13" />
                </g>
            </g><g
   transform="translate(776.533,41.9286)"
   id="g17">
                <path
   d="M 329.015,421.68 H 657.694"
   style="fill:none"
   id="path14" />
                <g
   transform="translate(-465.882,45.5432)"
   id="g16">
                    <path
   d="m 1118.33,370.887 c 2.89,0 5.25,2.352 5.25,5.25 0,2.898 -2.36,5.25 -5.25,5.25 -2.9,0 -5.25,-2.352 -5.25,-5.25 0,-2.898 2.35,-5.25 5.25,-5.25 z m 0,3.5 c -0.97,0 -1.75,0.784 -1.75,1.75 0,0.966 0.78,1.75 1.75,1.75 0.96,0 1.75,-0.784 1.75,-1.75 0,-0.966 -0.79,-1.75 -1.75,-1.75 z"
   style="fill:#01008c"
   id="path15" />
                    <path
   d="m 794.897,377.887 c -0.966,0 -1.75,-0.784 -1.75,-1.75 0,-0.966 0.784,-1.75 1.75,-1.75 h 319.933 c 0.96,0 1.75,0.784 1.75,1.75 0,0.966 -0.79,1.75 -1.75,1.75 z"
   style="fill:#01008c"
   id="path16" />
                </g>
            </g><g
   transform="translate(1238.39,40.7989)"
   id="g18">
                <path
   d="M 328.8,421.68 H 506.801"
   style="fill:none"
   id="path17" />
                <path
   d="m 328.8,423.43 c -0.965,0 -1.75,-0.784 -1.75,-1.75 0,-0.966 0.785,-1.75 1.75,-1.75 h 1.855 c 0.965,0 1.75,0.784 1.75,1.75 0,0.966 -0.785,1.75 -1.75,1.75 z m 12.98,0 c -0.966,0 -1.75,-0.784 -1.75,-1.75 0,-0.966 0.784,-1.75 1.75,-1.75 h 3.708 c 0.966,0 1.75,0.784 1.75,1.75 0,0.966 -0.784,1.75 -1.75,1.75 z m 14.833,0 c -0.966,0 -1.75,-0.784 -1.75,-1.75 0,-0.966 0.784,-1.75 1.75,-1.75 h 3.708 c 0.966,0 1.75,0.784 1.75,1.75 0,0.966 -0.784,1.75 -1.75,1.75 z m 14.833,0 c -0.965,0 -1.75,-0.784 -1.75,-1.75 0,-0.966 0.785,-1.75 1.75,-1.75 h 3.709 c 0.966,0 1.75,0.784 1.75,1.75 0,0.966 -0.784,1.75 -1.75,1.75 z m 14.834,0 c -0.966,0 -1.75,-0.784 -1.75,-1.75 0,-0.966 0.784,-1.75 1.75,-1.75 h 3.708 c 0.966,0 1.75,0.784 1.75,1.75 0,0.966 -0.784,1.75 -1.75,1.75 z m 14.833,0 c -0.966,0 -1.75,-0.784 -1.75,-1.75 0,-0.966 0.784,-1.75 1.75,-1.75 h 3.709 c 0.965,0 1.75,0.784 1.75,1.75 0,0.966 -0.785,1.75 -1.75,1.75 z m 14.834,0 c -0.966,0 -1.75,-0.784 -1.75,-1.75 0,-0.966 0.784,-1.75 1.75,-1.75 h 3.708 c 0.966,0 1.75,0.784 1.75,1.75 0,0.966 -0.784,1.75 -1.75,1.75 z m 14.833,0 c -0.966,0 -1.75,-0.784 -1.75,-1.75 0,-0.966 0.784,-1.75 1.75,-1.75 h 3.709 c 0.966,0 1.75,0.784 1.75,1.75 0,0.966 -0.784,1.75 -1.75,1.75 z m 14.833,0 c -0.965,0 -1.75,-0.784 -1.75,-1.75 0,-0.966 0.785,-1.75 1.75,-1.75 h 3.709 c 0.966,0 1.75,0.784 1.75,1.75 0,0.966 -0.784,1.75 -1.75,1.75 z m 14.834,0 c -0.966,0 -1.75,-0.784 -1.75,-1.75 0,-0.966 0.784,-1.75 1.75,-1.75 h 3.708 c 0.966,0 1.75,0.784 1.75,1.75 0,0.966 -0.784,1.75 -1.75,1.75 z m 14.834,0 c -0.966,0 -1.75,-0.784 -1.75,-1.75 0,-0.966 0.784,-1.75 1.75,-1.75 h 3.708 c 0.966,0 1.75,0.784 1.75,1.75 0,0.966 -0.784,1.75 -1.75,1.75 z m 14.833,0 c -0.966,0 -1.75,-0.784 -1.75,-1.75 0,-0.966 0.784,-1.75 1.75,-1.75 h 3.708 c 0.966,0 1.75,0.784 1.75,1.75 0,0.966 -0.784,1.75 -1.75,1.75 z m 14.833,0 c -0.966,0 -1.75,-0.784 -1.75,-1.75 0,-0.966 0.784,-1.75 1.75,-1.75 h 1.854 c 0.966,0 1.75,0.784 1.75,1.75 0,0.966 -0.784,1.75 -1.75,1.75 z"
   style="fill:#01008c"
   id="path18" />
            </g><g
   transform="translate(1110.2,42.0352)"
   id="g22">
                <path
   d="m 324.248,421.68 132.749,-1.236"
   style="fill:none"
   id="path19" />
                <g
   transform="translate(-799.545,45.4366)"
   id="g21">
                    <path
   d="m 1251.24,369.806 c 2.9,-0.027 5.28,2.304 5.3,5.201 0.03,2.898 -2.3,5.272 -5.2,5.299 -2.9,0.027 -5.27,-2.304 -5.3,-5.201 -0.02,-2.897 2.31,-5.272 5.2,-5.299 z m 0.04,3.5 c -0.97,0.009 -1.75,0.801 -1.74,1.766 0.01,0.966 0.8,1.743 1.77,1.734 0.96,-0.009 1.74,-0.8 1.73,-1.766 -0.01,-0.966 -0.8,-1.743 -1.76,-1.734 z"
   style="fill:#01008c"
   id="path20" />
                    <path
   d="m 1123.81,377.993 c -0.97,0.009 -1.76,-0.767 -1.77,-1.733 -0.01,-0.966 0.77,-1.757 1.74,-1.766 l 124,-1.155 c 0.96,-0.009 1.75,0.768 1.76,1.733 0.01,0.966 -0.77,1.758 -1.73,1.767 z"
   style="fill:#01008c"
   id="path21" />
                </g>
            </g>
        <g
   transform="matrix(0.496609,0,0,1,239.999,-56.1499)"
   id="g23">
                <rect
   x="146.541"
   y="292.33801"
   width="337.638"
   height="24.625999"
   style="fill:url(#_Linear1)"
   id="rect22" />
            </g><g
   transform="matrix(3.15841,0,0,1.00283,28.3155,-56.8385)"
   id="g24">
                <path
   d="M 484.179,197.466 V 316.964 H 146.541 v -24.626 c 142.241,-14.752 312.467,-5.864 337.638,-94.872 z"
   style="fill:url(#_Linear2);stroke:#01008c;stroke-width:0.43px;stroke-miterlimit:1"
   id="path23" />
            </g><g
   transform="matrix(0.615991,0,0,0.615991,193.933,-43.217)"
   id="g26">
                <g
   transform="matrix(29.2212,0,0,29.2212,417.935,482.555)"
   id="g25">
                </g>
                <text
   x="237.202"
   y="482.55499"
   style="font-weight:800;font-size:29.221px;font-family:Avenir-Black, Avenir, sans-serif;fill:#01008c"
   id="text25">Ysgol St Paul</text>
            </g><g
   transform="matrix(0.615991,0,0,0.615991,804.979,-47.2817)"
   id="g28">
                <g
   transform="matrix(29.2212,0,0,29.2212,536.529,482.555)"
   id="g27">
                </g>
                <text
   x="159.897"
   y="482.55499"
   style="font-weight:800;font-size:29.221px;font-family:Avenir-Black, Avenir, sans-serif;fill:#01008c"
   id="text28">Ysgol Y Garnedd Gwreiddiol</text>
            </g><g
   transform="matrix(2.05722,0,0,1.00283,1265.79,-57.2941)"
   id="g29">
                <path
   d="m 178.406,169.34 0.311,147.624 H 146.541 L 146.388,186.65 c 16.906,-3.487 8.686,-3.52 32.018,-17.31 z"
   style="fill:url(#_Linear3)"
   id="path28" />
            </g><g
   transform="matrix(0.615991,0,0,0.615991,1446.07,-65.2817)"
   id="g31">
                <text
   x="216.48213"
   y="482.55499"
   style="font-weight:800;font-size:29.221px;font-family:Avenir-Black, Avenir, sans-serif;fill:#01008c"
   id="text29">Ysgol Y Garnedd</text>
                <g
   transform="matrix(29.2212,0,0,29.2212,407.211,511.776)"
   id="g30">
                </g>
                <text
   x="274.35513"
   y="511.776"
   style="font-weight:800;font-size:29.221px;font-family:Avenir-Black, Avenir, sans-serif;fill:#01008c"
   id="text30">Newydd</text>
            </g><g
   id="Background">
                <g
   transform="matrix(0.997461,0,0,1,3.37606,0)"
   id="g32">
                    <rect
   x="489.66599"
   y="193.409"
   width="1068.14"
   height="66.161003"
   style="fill:none;stroke:#ff5b6d;stroke-width:2px;stroke-miterlimit:1;stroke-dasharray:2, 6.01, 0, 0, 0, 0"
   id="rect31" />
                </g>
                <g
   transform="matrix(0.48032,0,0,0.48032,410.811,-39.9261)"
   id="g34">
                    <g
   transform="matrix(29.2212,0,0,29.2212,531.474,482.555)"
   id="g33">
                    </g>
                    <text
   x="164.952"
   y="482.55499"
   style="font-size:29.221px;font-family:Avenir-Roman, Avenir, sans-serif;fill:#8c0020"
   id="text33">Capasiti - 210 o ddisgyblion</text>
                </g>
                <g
   transform="matrix(0.48032,0,0,0.48032,1486.55,-133.698)"
   id="g36">
                    <g
   transform="matrix(29.2212,0,0,29.2212,531.474,482.555)"
   id="g35">
                    </g>
                    <text
   x="164.952"
   y="482.55499"
   style="font-size:29.221px;font-family:Avenir-Roman, Avenir, sans-serif;fill:#8c0020"
   id="text35">Capasiti - 420 o ddisgyblion</text>
                </g>
                <path
   d="m 1567.19,103.162 c 0,-0.828 0.67,-1.5 1.5,-1.5 0.82,0 1.5,0.672 1.5,1.5 v 1.618 c 0,0.828 -0.68,1.5 -1.5,1.5 -0.83,0 -1.5,-0.672 -1.5,-1.5 z m 0,11.326 c 0,-0.827 0.67,-1.5 1.5,-1.5 0.82,0 1.5,0.673 1.5,1.5 v 3.237 c 0,0.827 -0.68,1.5 -1.5,1.5 -0.83,0 -1.5,-0.673 -1.5,-1.5 z m 0,12.945 c 0,-0.828 0.67,-1.5 1.5,-1.5 0.82,0 1.5,0.672 1.5,1.5 v 3.236 c 0,0.828 -0.68,1.5 -1.5,1.5 -0.83,0 -1.5,-0.672 -1.5,-1.5 z m 0,12.945 c 0,-0.828 0.67,-1.5 1.5,-1.5 0.82,0 1.5,0.672 1.5,1.5 v 3.236 c 0,0.828 -0.68,1.5 -1.5,1.5 -0.83,0 -1.5,-0.672 -1.5,-1.5 z m 0,12.945 c 0,-0.828 0.67,-1.5 1.5,-1.5 0.82,0 1.5,0.672 1.5,1.5 v 3.236 c 0,0.828 -0.68,1.5 -1.5,1.5 -0.83,0 -1.5,-0.672 -1.5,-1.5 z m 0,12.944 c 0,-0.828 0.67,-1.5 1.5,-1.5 0.82,0 1.5,0.672 1.5,1.5 v 3.236 c 0,0.828 -0.68,1.5 -1.5,1.5 -0.83,0 -1.5,-0.672 -1.5,-1.5 z m 0,12.945 c 0,-0.828 0.67,-1.5 1.5,-1.5 0.82,0 1.5,0.672 1.5,1.5 v 3.236 c 0,0.828 -0.68,1.5 -1.5,1.5 -0.83,0 -1.5,-0.672 -1.5,-1.5 z m 0,12.945 c 0,-0.828 0.67,-1.5 1.5,-1.5 0.82,0 1.5,0.672 1.5,1.5 v 3.236 c 0,0.828 -0.68,1.5 -1.5,1.5 -0.83,0 -1.5,-0.672 -1.5,-1.5 z m 0,12.944 c 0,-0.828 0.67,-1.5 1.5,-1.5 0.82,0 1.5,0.672 1.5,1.5 v 3.236 c 0,0.828 -0.68,1.5 -1.5,1.5 -0.83,0 -1.5,-0.672 -1.5,-1.5 z m 0,12.945 c 0,-0.828 0.67,-1.5 1.5,-1.5 0.82,0 1.5,0.672 1.5,1.5 v 3.236 c 0,0.828 -0.68,1.5 -1.5,1.5 -0.83,0 -1.5,-0.672 -1.5,-1.5 z m 0,12.945 c 0,-0.828 0.67,-1.5 1.5,-1.5 0.82,0 1.5,0.672 1.5,1.5 v 3.236 c 0,0.828 -0.68,1.5 -1.5,1.5 -0.83,0 -1.5,-0.672 -1.5,-1.5 z m 0,12.944 c 0,-0.828 0.67,-1.5 1.5,-1.5 0.82,0 1.5,0.672 1.5,1.5 v 3.236 c 0,0.828 -0.68,1.5 -1.5,1.5 -0.83,0 -1.5,-0.672 -1.5,-1.5 z m 0,12.945 c 0,-0.828 0.67,-1.5 1.5,-1.5 0.82,0 1.5,0.672 1.5,1.5 v 1.618 c 0,0.828 -0.68,1.5 -1.5,1.5 -0.83,0 -1.5,-0.672 -1.5,-1.5 z"
   style="fill:#ff5b6d"
   id="path36" />
                <path
   d="m 1568.77,104.427 c -0.83,0 -1.5,-0.672 -1.5,-1.5 0,-0.828 0.67,-1.5 1.5,-1.5 h 1.6 c 0.83,0 1.5,0.672 1.5,1.5 0,0.828 -0.67,1.5 -1.5,1.5 z m 11.2,0 c -0.82,0 -1.5,-0.672 -1.5,-1.5 0,-0.828 0.68,-1.5 1.5,-1.5 h 3.21 c 0.82,0 1.5,0.672 1.5,1.5 0,0.828 -0.68,1.5 -1.5,1.5 z m 12.81,0 c -0.83,0 -1.5,-0.672 -1.5,-1.5 0,-0.828 0.67,-1.5 1.5,-1.5 h 3.2 c 0.83,0 1.5,0.672 1.5,1.5 0,0.828 -0.67,1.5 -1.5,1.5 z m 12.81,0 c -0.83,0 -1.5,-0.672 -1.5,-1.5 0,-0.828 0.67,-1.5 1.5,-1.5 h 3.2 c 0.82,0 1.5,0.672 1.5,1.5 0,0.828 -0.68,1.5 -1.5,1.5 z m 12.8,0 c -0.83,0 -1.5,-0.672 -1.5,-1.5 0,-0.828 0.67,-1.5 1.5,-1.5 h 3.2 c 0.83,0 1.5,0.672 1.5,1.5 0,0.828 -0.67,1.5 -1.5,1.5 z m 12.81,0 c -0.83,0 -1.5,-0.672 -1.5,-1.5 0,-0.828 0.67,-1.5 1.5,-1.5 h 1.6 c 0.82,0 1.5,0.672 1.5,1.5 0,0.828 -0.68,1.5 -1.5,1.5 z"
   style="fill:#ff5b6d"
   id="path37" />
                <g
   id="Garnedd1_FB_End_Date"
   transform="translate(377.191,49.4874)">
                    <g
   transform="rotate(90,662.946,404.574)"
   id="g38">
                        <path
   d="m 486.816,584.895 c -0.828,0 -1.5,-0.672 -1.5,-1.5 0,-0.828 0.672,-1.5 1.5,-1.5 h 24.628 c 0.828,0 1.5,0.672 1.5,1.5 0,0.828 -0.672,1.5 -1.5,1.5 z"
   style="fill:#01008c"
   id="path38" />
                    </g>
                    <g
   transform="matrix(0.558043,0,0,0.558043,239.534,39.731)"
   id="g40">
                        <g
   transform="matrix(51.0592,0,0,51.0592,494.11,449.259)"
   id="g39">
                        </g>
                        <text
   x="380.55499"
   y="449.259"
   style="font-size:51.059px;font-family:Avenir-Book, Avenir"
   id="text39">1990</text>
                    </g>
                </g>
                <g
   id="Garnedd1_FB_End_Date1"
   serif:id="Garnedd1_FB_End_Date"
   transform="translate(147.052,49.4874)">
                    <g
   transform="rotate(90,662.946,404.574)"
   id="g41">
                        <path
   d="m 486.816,584.895 c -0.828,0 -1.5,-0.672 -1.5,-1.5 0,-0.828 0.672,-1.5 1.5,-1.5 h 24.628 c 0.828,0 1.5,0.672 1.5,1.5 0,0.828 -0.672,1.5 -1.5,1.5 z"
   style="fill:#01008c"
   id="path40" />
                    </g>
                    <g
   transform="matrix(0.558043,0,0,0.558043,239.534,39.731)"
   id="g43">
                        <g
   transform="matrix(51.0592,0,0,51.0592,494.11,449.259)"
   id="g42">
                        </g>
                        <text
   x="380.55499"
   y="449.259"
   style="font-size:51.059px;font-family:Avenir-Book, Avenir"
   id="text42">1980</text>
                    </g>
                </g>
                <g
   id="Garnedd1_FB_End_Date2"
   serif:id="Garnedd1_FB_End_Date"
   transform="translate(615.322,49.4874)">
                    <g
   transform="rotate(90,662.946,404.574)"
   id="g44">
                        <path
   d="m 486.816,584.895 c -0.828,0 -1.5,-0.672 -1.5,-1.5 0,-0.828 0.672,-1.5 1.5,-1.5 h 24.628 c 0.828,0 1.5,0.672 1.5,1.5 0,0.828 -0.672,1.5 -1.5,1.5 z"
   style="fill:#01008c"
   id="path43" />
                    </g>
                    <g
   transform="matrix(0.558043,0,0,0.558043,239.534,39.731)"
   id="g46">
                        <g
   transform="matrix(51.0592,0,0,51.0592,494.11,449.259)"
   id="g45">
                        </g>
                        <text
   x="380.55499"
   y="449.259"
   style="font-size:51.059px;font-family:Avenir-Book, Avenir"
   id="text45">2000</text>
                    </g>
                </g>
                <g
   id="Garnedd1_FB_End_Date3"
   serif:id="Garnedd1_FB_End_Date"
   transform="translate(830.81,49.4874)">
                    <g
   transform="rotate(90,662.946,404.574)"
   id="g47">
                        <path
   d="m 486.816,584.895 c -0.828,0 -1.5,-0.672 -1.5,-1.5 0,-0.828 0.672,-1.5 1.5,-1.5 h 24.628 c 0.828,0 1.5,0.672 1.5,1.5 0,0.828 -0.672,1.5 -1.5,1.5 z"
   style="fill:#01008c"
   id="path46" />
                    </g>
                    <g
   transform="matrix(0.558043,0,0,0.558043,239.534,39.731)"
   id="g49">
                        <g
   transform="matrix(51.0592,0,0,51.0592,494.11,449.259)"
   id="g48">
                        </g>
                        <text
   x="380.55499"
   y="449.259"
   style="font-size:51.059px;font-family:Avenir-Book, Avenir"
   id="text48">2010</text>
                    </g>
                </g>
            </g>
        <g
   transform="rotate(-30.000012,374.03701,566.75122)"
   id="g53">
                <g
   transform="matrix(18,0,0,18,448.191,554.564)"
   id="g50">
                </g>
                <g
   transform="matrix(18,0,0,18,453.35,554.564)"
   id="g51">
                </g>
                <text
   x="418.86899"
   y="554.56403"
   style="font-weight:300;font-size:18px;font-family:Avenir-Light, Avenir, sans-serif;fill:#020047"
   id="text51">Griffith Jones</text>
                <g
   transform="matrix(18,0,0,18,517.194,584.564)"
   id="g52">
                </g>
                <text
   x="426.95999"
   y="584.56403"
   style="font-weight:300;font-size:18px;font-family:Avenir-Light, Avenir, sans-serif;fill:#020047"
   id="text52">1975 - 1980</text>
            </g><g
   transform="rotate(-30.000012,444.74507,322.81744)"
   id="g55">
                <text
   x="413.52301"
   y="554.56403"
   style="font-weight:300;font-size:18px;font-family:Avenir-Light, Avenir, sans-serif;fill:#020047"
   id="text53">W<tspan
   x="430.94699 435.267"
   y="554.56403 554.56403"
   id="tspan53">il</tspan>liam Davies</text>
                <g
   transform="matrix(18,0,0,18,517.194,584.564)"
   id="g54">
                </g>
                <text
   x="426.95999"
   y="584.56403"
   style="font-weight:300;font-size:18px;font-family:Avenir-Light, Avenir, sans-serif;fill:#020047"
   id="text54">1980 - 2000</text>
            </g><g
   transform="rotate(-30.000012,677.65652,-553.87394)"
   id="g57">
                <text
   x="415.521"
   y="554.56403"
   style="font-weight:300;font-size:18px;font-family:Avenir-Light, Avenir, sans-serif;fill:#020047"
   id="text55">Elfed W<tspan
   x="478.97101 483.29099"
   y="554.56403 554.56403"
   id="tspan55">il</tspan>liams</text>
                <g
   transform="matrix(18,0,0,18,517.194,584.564)"
   id="g56">
                </g>
                <text
   x="431.64001"
   y="584.56403"
   style="font-weight:300;font-size:18px;font-family:Avenir-Light, Avenir, sans-serif;fill:#020047"
   id="text56">2000-2014</text>
            </g><g
   transform="rotate(-30.000012,842.35103,-1174.096)"
   id="g59">
                <text
   x="417.01501"
   y="554.56403"
   style="font-weight:300;font-size:18px;font-family:Avenir-Light, Avenir, sans-serif;fill:#020047"
   id="text57">Llion Williams<tspan
   x="477.47699"
   y="554.56403"
   id="tspan57" /></text>
                <g
   transform="matrix(18,0,0,18,512.514,584.564)"
   id="g58">
                </g>
                <text
   x="431.64001"
   y="584.56403"
   style="font-weight:300;font-size:18px;font-family:Avenir-Light, Avenir, sans-serif;fill:#020047"
   id="text58">2014-2023</text>
            </g><g
   transform="rotate(-30.000012,927.08814,-1517.0447)"
   id="g61">
                <text
   x="420.21899"
   y="554.56403"
   style="font-weight:300;font-size:18px;font-family:Avenir-Light, Avenir, sans-serif;fill:#020047"
   id="text59">Llinos Davies</text>
                <g
   transform="matrix(18,0,0,18,505.494,584.564)"
   id="g60">
                </g>
                <text
   x="438.66"
   y="584.56403"
   style="font-weight:300;font-size:18px;font-family:Avenir-Light, Avenir, sans-serif;fill:#020047"
   id="text60">2023 - ...</text>
            </g>
        <g
   id="icon_fire"
   transform="matrix(1.62536,0,0,1.62536,862.471,382.182)">
                <g
   transform="translate(-12,-12)"
   id="g67">
                    <g
   transform="matrix(0.025,0,0,0.025,0,24)"
   id="g66">
                        <path
   d="m 240,-400 c 0,34.667 7,67.5 21,98.5 14,31 34,58.167 60,81.5 -0.667,-3.333 -1,-6.333 -1,-9 v -9 c 0,-21.333 4,-41.333 12,-60 8,-18.667 19.667,-35.667 35,-51 l 113,-111 113,111 c 15.333,15.333 27,32.333 35,51 8,18.667 12,38.667 12,60 v 9 c 0,2.667 -0.333,5.667 -1,9 26,-23.333 46,-50.5 60,-81.5 14,-31 21,-63.833 21,-98.5 0,-33.333 -6.167,-64.833 -18.5,-94.5 -12.333,-29.667 -30.167,-56.167 -53.5,-79.5 -13.333,8.667 -27.333,15.167 -42,19.5 -14.667,4.333 -29.667,6.5 -45,6.5 -41.333,0 -77.167,-13.667 -107.5,-41 -30.333,-27.333 -47.833,-61 -52.5,-101 -26,22 -49,44.833 -69,68.5 -20,23.667 -36.833,47.667 -50.5,72 -13.667,24.333 -24,49.167 -31,74.5 -7,25.333 -10.5,50.333 -10.5,75 z m 240,52 -57,56 c -7.333,7.333 -13,15.667 -17,25 -4,9.333 -6,19 -6,29 0,21.333 7.833,39.667 23.5,55 15.667,15.333 34.5,23 56.5,23 22,0 40.833,-7.667 56.5,-23 15.667,-15.333 23.5,-33.667 23.5,-55 0,-10.667 -2,-20.5 -6,-29.5 -4,-9 -9.667,-17.167 -17,-24.5 z m 0,-492 v 132 c 0,22.667 7.833,41.667 23.5,57 15.667,15.333 34.833,23 57.5,23 12,0 23.167,-2.5 33.5,-7.5 10.333,-5 19.5,-12.5 27.5,-22.5 l 18,-22 c 49.333,28 88.333,67 117,117 28.667,50 43,104.333 43,163 0,89.333 -31,165 -93,227 -62,62 -137.667,93 -227,93 -89.333,0 -165,-31 -227,-93 -62,-62 -93,-137.667 -93,-227 0,-86 28.833,-167.667 86.5,-245 57.667,-77.333 135.5,-142.333 233.5,-195 z"
   style="fill:url(#_Linear4);fill-rule:nonzero"
   id="path65" />
                    </g>
                </g>
            </g><g
   id="Garnedd1_Opening_Date"
   transform="translate(3.75316,48.811)">
                <g
   transform="rotate(90,662.946,404.574)"
   id="g70">
                    <path
   d="m 490.907,584.895 c -0.828,0 -1.5,-0.672 -1.5,-1.5 0,-0.828 0.672,-1.5 1.5,-1.5 h 24.649 c 0.828,0 1.5,0.672 1.5,1.5 0,0.828 -0.672,1.5 -1.5,1.5 z"
   style="fill:#01008c"
   id="path69" />
                </g>
                <g
   transform="translate(105.208,-189.794)"
   id="g71">
                    <path
   d="m 423.637,453.549 v 34.079 c 0,3.037 -2.465,5.503 -5.503,5.503 h -78.433 c -3.037,0 -5.503,-2.466 -5.503,-5.503 v -34.079 c 0,-3.037 2.466,-5.503 5.503,-5.503 h 78.433 c 3.038,0 5.503,2.466 5.503,5.503 z"
   style="fill:none;stroke:#01008c;stroke-width:3px;stroke-linejoin:round;stroke-miterlimit:1.5"
   id="path70" />
                </g>
                <g
   transform="matrix(0.558043,0,0,0.558043,239.534,39.9957)"
   id="g73">
                    <g
   transform="matrix(51.0592,0,0,51.0592,494.11,449.259)"
   id="g72">
                    </g>
                    <text
   x="380.55499"
   y="449.259"
   style="font-size:51.059px;font-family:Avenir-Book, Avenir"
   id="text72">1975</text>
                </g>
            </g><g
   id="Garnedd2_Opening_Date"
   transform="translate(4.48488,59.7546)">
                <g
   transform="rotate(90,1202.786,938.774)"
   id="g74">
                    <path
   d="m 485.604,584.895 c -0.828,0 -1.5,-0.672 -1.5,-1.5 0,-0.828 0.672,-1.5 1.5,-1.5 h 25.718 c 0.827,0 1.5,0.672 1.5,1.5 0,0.828 -0.673,1.5 -1.5,1.5 z"
   style="fill:#01008c"
   id="path73" />
                </g>
                <g
   transform="translate(1179.24,-200.737)"
   id="g75">
                    <path
   d="m 423.637,453.549 v 34.079 c 0,3.037 -2.465,5.503 -5.503,5.503 h -78.433 c -3.037,0 -5.503,-2.466 -5.503,-5.503 v -34.079 c 0,-3.037 2.466,-5.503 5.503,-5.503 h 78.433 c 3.038,0 5.503,2.466 5.503,5.503 z"
   style="fill:none;stroke:#01008c;stroke-width:3px;stroke-linejoin:round;stroke-miterlimit:1.5"
   id="path74" />
                </g>
                <g
   transform="matrix(0.558043,0,0,0.558043,1309.1153,29.0521)"
   id="g77">
                    <g
   transform="matrix(51.0592,0,0,51.0592,494.11,449.259)"
   id="g76">
                    </g>
                    <text
   x="380.55499"
   y="449.259"
   style="font-size:51.059px;font-family:Avenir-Book, Avenir"
   id="text76">2020</text>
                </g>
            </g>
    </g>
    <defs
   id="defs89"><linearGradient
     id="_Linear1"
     x1="0"
     y1="0"
     x2="1"
     y2="0.00163543"
     gradientUnits="userSpaceOnUse"
     gradientTransform="matrix(337.638,-0.846366,0.644242,443.568,146.446,305.491)"><stop
       offset="0"
       style="stop-color:white;stop-opacity:1"
       id="stop78" /><stop
       offset="0.47"
       style="stop-color:rgb(186,186,186);stop-opacity:1"
       id="stop79" /><stop
       offset="1"
       style="stop-color:rgb(166,166,166);stop-opacity:1"
       id="stop80" /></linearGradient><linearGradient
     id="_Linear2"
     x1="0"
     y1="0"
     x2="1"
     y2="0"
     gradientUnits="userSpaceOnUse"
     gradientTransform="matrix(337.017,-8.12693,2.5804,1061.43,146.999,303.546)"><stop
       offset="0"
       style="stop-color:rgb(31,255,0);stop-opacity:1"
       id="stop81" /><stop
       offset="0.83"
       style="stop-color:rgb(255,217,0);stop-opacity:1"
       id="stop82" /><stop
       offset="1"
       style="stop-color:rgb(255,0,79);stop-opacity:1"
       id="stop83" /></linearGradient><linearGradient
     id="_Linear3"
     x1="0"
     y1="0"
     x2="1"
     y2="0.00440815"
     gradientUnits="userSpaceOnUse"
     gradientTransform="matrix(337.017,-8.12693,2.5804,1061.43,146.999,303.546)"><stop
       offset="0"
       style="stop-color:rgb(217,255,0);stop-opacity:0.62"
       id="stop84" /><stop
       offset="0.15"
       style="stop-color:rgb(235,255,123);stop-opacity:0.62"
       id="stop85" /><stop
       offset="0.33"
       style="stop-color:rgb(250,255,221);stop-opacity:0.62"
       id="stop86" /><stop
       offset="1"
       style="stop-color:white;stop-opacity:0.62"
       id="stop87" /></linearGradient><linearGradient
     id="_Linear4"
     x1="0"
     y1="0"
     x2="1"
     y2="0"
     gradientUnits="userSpaceOnUse"
     gradientTransform="matrix(499.674,-378.487,378.487,499.674,210.268,-241.967)"><stop
       offset="0"
       style="stop-color:rgb(255,0,0);stop-opacity:1"
       id="stop88" /><stop
       offset="1"
       style="stop-color:rgb(255,191,0);stop-opacity:1"
       id="stop89" /></linearGradient></defs>
</svg>
